<svg version="1.1" id="Layer_1" xmlns="http://www.w3.org/2000/svg" xmlns:xlink="http://www.w3.org/1999/xlink" x="0px" y="0px"
	 width="100%" viewBox="0 0 341 102" enable-background="new 0 0 341 102" xml:space="preserve">
<path fill="#FDFCFC" opacity="1.000000" stroke="none" 
	d="
M227.000000,103.000000 
	C151.333359,103.000000 76.166710,103.000000 1.000050,103.000000 
	C1.000034,69.000031 1.000034,35.000065 1.000017,1.000073 
	C114.666595,1.000049 228.333191,1.000049 341.999817,1.000024 
	C341.999878,34.999924 341.999878,68.999847 341.999939,102.999886 
	C303.833344,103.000000 265.666656,103.000000 227.000000,103.000000 
M262.974182,46.396301 
	C262.369202,46.249195 261.764221,46.102089 260.802032,45.299534 
	C259.584656,45.151005 258.367279,45.002476 257.051849,44.383938 
	C256.566589,44.242260 256.081299,44.100582 255.596039,43.958904 
	C255.858795,44.497868 256.121552,45.036831 256.764679,46.160225 
	C260.415894,47.484344 264.027435,49.799492 267.725708,49.947388 
	C278.969055,50.397011 290.247955,50.108368 301.508118,49.873138 
	C304.080414,49.819401 306.633057,48.825142 309.194763,48.263752 
	C309.122375,47.521351 309.050018,46.778954 308.977631,46.036552 
	C298.678314,46.036552 288.378967,46.036552 277.285828,45.988945 
	C274.814423,45.325768 272.342987,44.662590 269.551239,43.913456 
	C270.172150,45.826309 270.565979,47.039715 270.123047,48.290501 
	C267.754456,47.821415 265.385864,47.352333 262.974182,46.396301 
M186.332413,14.233359 
	C184.935776,13.716953 183.539124,13.200547 182.142487,12.684141 
	C198.512878,11.150197 214.187485,13.404113 230.305222,18.621744 
	C229.505722,17.178541 229.421371,16.765547 229.192200,16.656282 
	C227.997894,16.086847 226.788422,15.534837 225.545120,15.084791 
	C211.630707,10.048066 197.129852,8.291681 182.472839,7.384399 
	C153.687271,5.602545 126.067902,9.381008 100.480057,23.811291 
	C97.151184,25.688601 92.908081,26.004553 89.049240,26.868635 
	C82.905762,28.244295 76.722130,29.440224 70.574936,30.800091 
	C69.701912,30.993217 68.938179,31.680347 68.123863,32.138832 
	C90.676849,28.978811 112.909889,30.300392 135.111313,32.921848 
	C157.554840,35.571896 179.970703,38.456123 202.398682,41.237770 
	C173.192230,30.852955 142.617447,28.446188 111.943474,24.786835 
	C113.362114,22.708042 114.822701,21.183077 116.603958,20.319721 
	C119.885628,18.729136 123.305740,17.383133 126.755455,16.186989 
	C147.803650,8.888827 168.412323,7.379164 187.711670,21.227533 
	C193.137146,25.120625 199.277496,26.399309 205.768188,27.608456 
	C222.899979,30.799932 239.822479,35.103428 256.932983,38.425037 
	C266.656586,40.312649 276.585724,41.141556 286.356018,42.438446 
	C286.238770,40.631943 286.178497,39.703224 286.063507,37.931496 
	C291.276093,45.534012 297.790802,40.758129 303.477875,41.589146 
	C300.104218,39.316772 296.655609,37.372044 292.982025,36.054714 
	C274.953979,29.589983 255.980988,28.203350 237.172485,25.996916 
	C230.817261,25.251381 224.430344,24.775835 218.956711,23.957485 
	C222.984741,23.957485 227.012772,23.957485 231.040817,23.957485 
	C217.235565,16.113968 202.581680,12.906200 186.332413,14.233359 
M161.075500,69.611221 
	C160.161865,76.281830 159.248230,82.952438 158.310944,89.795776 
	C161.358688,89.795776 163.966782,89.795776 166.439407,89.795776 
	C167.531250,84.727104 168.273544,79.793800 169.798340,75.115524 
	C170.251465,73.725250 172.903015,73.051514 174.547226,72.049446 
	C175.271622,73.685005 176.678787,75.359428 176.588318,76.948601 
	C176.347519,81.179443 175.461716,85.373581 174.811401,89.722488 
	C177.906708,89.722488 180.470688,89.722488 183.250809,89.722488 
	C183.896545,85.205429 184.027039,80.779488 185.326279,76.728394 
	C185.949402,74.785446 188.783401,73.551552 190.616119,71.996536 
	C191.419815,73.897881 192.924637,75.815300 192.881500,77.697235 
	C192.791245,81.635506 191.885208,85.555084 191.275375,89.749405 
	C194.215759,89.749405 196.964752,89.749405 199.813339,89.749405 
	C200.555069,84.414551 201.486343,79.339737 201.915543,74.222801 
	C202.465759,67.663193 198.211060,63.719635 191.715469,64.823395 
	C189.062561,65.274185 186.579941,66.727028 183.695908,67.850143 
	C181.221207,64.449959 177.640350,63.988995 173.640869,65.341797 
	C171.958786,65.910751 170.784271,66.574211 168.534927,65.543915 
	C166.360596,64.547981 161.569809,63.090179 161.075500,69.611221 
M62.255253,64.617729 
	C59.876995,65.081169 57.498737,65.544601 54.746975,66.080826 
	C55.127964,62.599522 55.496914,59.228210 56.027927,54.375996 
	C52.443218,55.628819 47.753635,56.155666 47.486111,57.538189 
	C45.446331,68.079590 44.269573,78.787987 42.782391,89.752693 
	C45.780300,89.752693 48.365849,89.752693 51.050732,89.752693 
	C52.024124,84.999542 52.641880,80.199532 54.127674,75.685211 
	C54.654953,74.083176 57.294304,73.176300 58.969471,71.952080 
	C59.914368,73.763336 61.673912,75.590446 61.639046,77.382645 
	C61.560032,81.443886 60.596909,85.487915 59.979401,89.632111 
	C63.098129,89.632111 65.802742,89.632111 68.681290,89.632111 
	C69.253403,84.501968 69.802559,79.728462 70.314392,74.950958 
	C70.989525,68.649246 69.338226,66.359161 62.255253,64.617729 
M273.943726,64.992538 
	C270.172272,67.079628 266.400818,69.166718 262.013763,71.594475 
	C262.903809,65.609123 263.619324,60.797623 264.380615,55.678085 
	C261.249573,55.678085 258.804535,55.678085 256.003998,55.678085 
	C254.344986,67.026749 252.698578,78.289070 251.036194,89.660774 
	C254.146851,89.660774 256.872406,89.660774 258.658386,89.660774 
	C260.218506,86.343498 261.476654,83.668289 263.221283,79.958740 
	C265.837067,84.163010 266.928711,87.682877 269.303925,89.222244 
	C271.531158,90.665718 275.116425,90.013802 279.144257,90.378006 
	C275.945282,84.774033 273.349548,80.226875 270.652985,75.503021 
	C274.245819,72.135300 277.665131,68.930222 281.869598,64.989182 
	C278.689056,64.989182 276.738251,64.989182 273.943726,64.992538 
M149.855682,26.542856 
	C154.447983,26.895964 159.040283,27.249071 163.747467,27.611013 
	C162.064774,21.342260 162.510513,20.644100 168.747223,19.528603 
	C170.567429,19.203041 172.409851,19.001724 174.574539,18.696598 
	C161.524323,8.668900 128.682861,15.146346 119.109940,23.976315 
	C129.053558,24.788691 138.997162,25.601065 149.855682,26.542856 
M281.641693,85.726936 
	C288.087280,92.101311 296.587463,92.382576 302.888275,86.283257 
	C301.604584,84.847054 300.316833,83.406357 299.102539,82.047806 
	C292.527039,85.273911 290.782379,84.937668 288.017731,79.526237 
	C294.021545,79.526237 299.692627,79.526237 305.226227,79.526237 
	C306.640228,70.846596 303.580994,65.986092 296.671997,64.834610 
	C291.130402,63.911037 286.376434,65.286774 282.904297,69.740906 
	C279.251160,74.427261 278.465149,79.631859 281.641693,85.726936 
M116.195175,70.502602 
	C118.445213,70.729118 120.694061,71.122017 122.945602,71.138069 
	C125.493286,71.156250 128.178406,70.643906 127.915009,74.811470 
	C125.192322,74.948174 122.366280,74.541496 119.951248,75.354980 
	C117.150635,76.298363 113.685791,77.747414 112.423599,80.033775 
	C111.319260,82.034195 111.919785,87.030602 113.452675,87.978889 
	C116.149544,89.647263 120.123253,89.367371 123.582901,89.614265 
	C124.579704,89.685417 125.748360,88.230774 126.662964,88.403526 
	C129.238190,88.889969 131.722260,89.858994 134.630920,90.757874 
	C135.477798,84.636475 136.273727,79.732521 136.802383,74.799919 
	C137.244995,70.670418 136.265152,66.436829 131.765167,65.744400 
	C126.996231,65.010590 121.973488,65.766548 117.089432,66.191673 
	C116.610168,66.233398 116.325768,68.513649 116.195175,70.502602 
M228.649918,81.074532 
	C228.839447,79.252396 229.092255,77.434250 229.207352,75.607422 
	C229.658081,68.454224 226.665558,64.769608 219.541962,64.648956 
	C215.704849,64.583984 211.848679,65.642494 207.736847,66.231979 
	C208.021698,67.931351 208.045822,68.759300 208.313904,69.498817 
	C208.638260,70.393555 209.169067,71.213455 209.563278,71.974548 
	C219.620499,70.888603 219.620499,70.888603 220.592453,74.793678 
	C217.264130,74.972298 213.905594,74.878365 210.643890,75.395447 
	C206.352142,76.075813 203.518097,80.008720 203.978745,83.977631 
	C204.432968,87.890945 207.840851,91.351112 212.049011,90.282066 
	C217.126724,88.992111 222.014709,90.588470 227.276871,89.815483 
	C227.677475,87.168533 228.071152,84.567360 228.649918,81.074532 
M106.989616,73.657074 
	C108.717461,72.513298 110.445297,71.369514 112.118988,70.261581 
	C107.977982,62.858746 96.516373,62.949951 90.406387,68.878143 
	C85.103714,74.023041 85.020302,83.343872 90.162018,87.658478 
	C95.906578,92.478951 105.199417,91.147850 110.049614,84.486412 
	C108.414322,83.257950 106.774567,82.026138 105.134811,80.794327 
	C105.038116,81.323174 104.941429,81.852028 104.844734,82.380875 
	C102.051949,82.380875 98.612602,83.341660 96.690331,82.048073 
	C95.376511,81.163948 95.329422,76.790726 96.223259,74.589424 
	C97.767609,70.786018 101.242973,70.803146 106.989616,73.657074 
M314.522400,90.027397 
	C317.677704,89.848526 320.832977,89.669655 324.383942,89.468346 
	C323.558838,86.952553 323.100922,85.556335 322.661194,84.215599 
	C316.883331,83.529945 316.415222,81.675926 319.505524,72.062668 
	C321.243195,71.903725 323.014526,71.741707 324.921539,71.567268 
	C325.200775,69.459618 325.453888,67.549370 325.724854,65.504265 
	C323.561188,65.227997 321.811310,65.004562 320.009949,64.774559 
	C320.143494,62.743988 320.259186,60.984631 320.372375,59.263573 
	C317.504852,59.263573 314.966492,59.263573 312.428131,59.263573 
	C312.720947,59.698772 313.013763,60.133968 313.306580,60.569168 
	C311.731995,62.179543 309.807373,63.582268 308.690796,65.464363 
	C307.755920,67.040161 307.057953,70.647278 307.462952,70.841942 
	C313.020233,73.513069 309.292297,77.709846 309.221375,81.077316 
	C309.137848,85.041939 309.276886,88.467285 314.522400,90.027397 
M139.255402,88.517601 
	C141.948792,89.183372 144.642166,89.849144 146.782455,90.378197 
	C150.587280,83.164398 145.604630,72.344009 157.971283,71.595329 
	C158.295090,69.365135 158.593170,67.312180 158.908066,65.143394 
	C154.585953,65.143394 150.714661,65.355103 146.878281,65.079887 
	C143.492020,64.836960 142.240570,66.036125 141.918457,69.425926 
	C141.338531,75.529030 140.254211,81.584206 139.255402,88.517601 
M250.937592,71.381401 
	C251.231262,69.321251 251.524918,67.261108 251.723938,65.864960 
	C246.049194,65.864960 240.772461,65.864960 235.164078,65.864960 
	C234.089172,73.521675 232.955505,81.596817 231.795639,89.858658 
	C234.968887,89.858658 237.426208,89.858658 240.175125,89.858658 
	C240.762131,86.347374 241.540817,82.949837 241.856400,79.509819 
	C242.343750,74.197510 245.176743,71.834900 250.937592,71.381401 
M84.888847,66.581963 
	C82.123367,65.933769 79.357880,65.285576 76.369461,64.585136 
	C75.179504,73.620178 74.127136,81.610512 73.052628,89.768967 
	C76.050453,89.768967 78.637711,89.768967 81.449211,89.768967 
	C82.587959,82.191422 83.695747,74.819878 84.888847,66.581963 
M236.471497,40.973904 
	C228.939636,34.195004 214.485031,34.144840 206.948349,41.318588 
	C220.082794,36.873959 231.551346,37.561039 241.292130,47.890690 
	C239.858047,45.751614 238.423950,43.612541 236.471497,40.973904 
M95.000259,36.313610 
	C89.117836,35.815010 83.739914,36.863331 79.331604,41.425312 
	C90.046379,36.618500 99.590988,38.836124 108.672768,46.272049 
	C107.090179,40.585316 104.841812,38.971920 95.000259,36.313610 
M83.091644,61.877556 
	C86.229546,61.001770 87.164383,58.520897 85.709106,56.179535 
	C84.882202,54.849159 81.731705,53.725552 80.364449,54.290878 
	C78.760658,54.954006 77.030914,57.540409 77.008453,59.313572 
	C76.967850,62.519466 79.867294,62.254433 83.091644,61.877556 
M177.541229,25.973368 
	C173.466492,25.449034 169.391769,24.924702 164.393402,24.281517 
	C171.424332,31.009237 179.122513,26.701729 185.979080,28.172367 
	C186.039429,27.742353 186.099777,27.312342 186.160126,26.882328 
	C183.587601,26.588196 181.015091,26.294062 177.541229,25.973368 
M113.970840,33.200974 
	C111.464279,33.200974 108.957718,33.200974 106.039429,33.200974 
	C109.711250,39.204651 111.533104,39.250984 117.721886,33.983646 
	C116.603523,33.717243 115.684288,33.498272 113.970840,33.200974 
z"/>
<path fill="#C92D35" opacity="1.000000" stroke="none" 
	d="
M218.057922,24.176903 
	C224.430344,24.775835 230.817261,25.251381 237.172485,25.996916 
	C255.980988,28.203350 274.953979,29.589983 292.982025,36.054714 
	C296.655609,37.372044 300.104218,39.316772 303.477875,41.589146 
	C297.790802,40.758129 291.276093,45.534012 286.063507,37.931496 
	C286.178497,39.703224 286.238770,40.631943 286.356018,42.438446 
	C276.585724,41.141556 266.656586,40.312649 256.932983,38.425037 
	C239.822479,35.103428 222.899979,30.799932 205.768188,27.608456 
	C199.277496,26.399309 193.137146,25.120625 187.711670,21.227533 
	C168.412323,7.379164 147.803650,8.888827 126.755455,16.186989 
	C123.305740,17.383133 119.885628,18.729136 116.603958,20.319721 
	C114.822701,21.183077 113.362114,22.708042 111.943474,24.786835 
	C142.617447,28.446188 173.192230,30.852955 202.398682,41.237770 
	C179.970703,38.456123 157.554840,35.571896 135.111313,32.921848 
	C112.909889,30.300392 90.676849,28.978811 68.123863,32.138832 
	C68.938179,31.680347 69.701912,30.993217 70.574936,30.800091 
	C76.722130,29.440224 82.905762,28.244295 89.049240,26.868635 
	C92.908081,26.004553 97.151184,25.688601 100.480057,23.811291 
	C126.067902,9.381008 153.687271,5.602545 182.472839,7.384399 
	C197.129852,8.291681 211.630707,10.048066 225.545120,15.084791 
	C226.788422,15.534837 227.997894,16.086847 229.192200,16.656282 
	C229.421371,16.765547 229.505722,17.178541 230.305222,18.621744 
	C214.187485,13.404113 198.512878,11.150197 182.142487,12.684141 
	C183.539124,13.200547 184.935776,13.716953 186.840820,14.502980 
	C196.797791,20.479439 206.401459,25.679752 218.057922,24.176903 
z"/>
<path fill="#3F3F3F" opacity="1.000000" stroke="none" 
	d="
M161.126556,69.182129 
	C161.569809,63.090179 166.360596,64.547981 168.534927,65.543915 
	C170.784271,66.574211 171.958786,65.910751 173.640869,65.341797 
	C177.640350,63.988995 181.221207,64.449959 183.695908,67.850143 
	C186.579941,66.727028 189.062561,65.274185 191.715469,64.823395 
	C198.211060,63.719635 202.465759,67.663193 201.915543,74.222801 
	C201.486343,79.339737 200.555069,84.414551 199.813339,89.749405 
	C196.964752,89.749405 194.215759,89.749405 191.275375,89.749405 
	C191.885208,85.555084 192.791245,81.635506 192.881500,77.697235 
	C192.924637,75.815300 191.419815,73.897881 190.616119,71.996536 
	C188.783401,73.551552 185.949402,74.785446 185.326279,76.728394 
	C184.027039,80.779488 183.896545,85.205429 183.250809,89.722488 
	C180.470688,89.722488 177.906708,89.722488 174.811401,89.722488 
	C175.461716,85.373581 176.347519,81.179443 176.588318,76.948601 
	C176.678787,75.359428 175.271622,73.685005 174.547241,72.049446 
	C172.903015,73.051514 170.251465,73.725250 169.798340,75.115524 
	C168.273544,79.793800 167.531250,84.727104 166.439407,89.795776 
	C163.966782,89.795776 161.358688,89.795776 158.310944,89.795776 
	C159.248230,82.952438 160.161865,76.281830 161.126556,69.182129 
z"/>
<path fill="#C72831" opacity="1.000000" stroke="none" 
	d="
M62.631809,64.679642 
	C69.338226,66.359161 70.989525,68.649246 70.314392,74.950958 
	C69.802559,79.728462 69.253403,84.501968 68.681290,89.632111 
	C65.802742,89.632111 63.098129,89.632111 59.979401,89.632111 
	C60.596909,85.487915 61.560032,81.443886 61.639046,77.382645 
	C61.673912,75.590446 59.914368,73.763336 58.969467,71.952080 
	C57.294304,73.176300 54.654953,74.083176 54.127674,75.685211 
	C52.641880,80.199532 52.024124,84.999542 51.050732,89.752693 
	C48.365849,89.752693 45.780300,89.752693 42.782391,89.752693 
	C44.269573,78.787987 45.446331,68.079590 47.486111,57.538189 
	C47.753635,56.155666 52.443218,55.628819 56.027927,54.375996 
	C55.496914,59.228210 55.127964,62.599522 54.746975,66.080826 
	C57.498737,65.544601 59.876995,65.081169 62.631809,64.679642 
z"/>
<path fill="#40403F" opacity="1.000000" stroke="none" 
	d="
M274.365601,64.990860 
	C276.738251,64.989182 278.689056,64.989182 281.869598,64.989182 
	C277.665131,68.930222 274.245819,72.135300 270.652985,75.503021 
	C273.349548,80.226875 275.945282,84.774033 279.144257,90.378006 
	C275.116425,90.013802 271.531158,90.665718 269.303925,89.222244 
	C266.928711,87.682877 265.837067,84.163010 263.221283,79.958740 
	C261.476654,83.668289 260.218506,86.343498 258.658386,89.660774 
	C256.872406,89.660774 254.146851,89.660774 251.036194,89.660774 
	C252.698578,78.289070 254.344986,67.026749 256.003998,55.678085 
	C258.804535,55.678085 261.249573,55.678085 264.380615,55.678085 
	C263.619324,60.797623 262.903809,65.609123 262.013763,71.594475 
	C266.400818,69.166718 270.172272,67.079628 274.365601,64.990860 
z"/>
<path fill="#1771B3" opacity="1.000000" stroke="none" 
	d="
M149.398224,26.478149 
	C138.997162,25.601065 129.053558,24.788691 119.109940,23.976315 
	C128.682861,15.146346 161.524323,8.668900 174.574539,18.696598 
	C172.409851,19.001724 170.567429,19.203041 168.747223,19.528603 
	C162.510513,20.644100 162.064774,21.342260 163.747467,27.611013 
	C159.040283,27.249071 154.447983,26.895964 149.398224,26.478149 
z"/>
<path fill="#444443" opacity="1.000000" stroke="none" 
	d="
M281.418060,85.426865 
	C278.465149,79.631859 279.251160,74.427261 282.904297,69.740906 
	C286.376434,65.286774 291.130402,63.911037 296.671997,64.834610 
	C303.580994,65.986092 306.640228,70.846596 305.226227,79.526237 
	C299.692627,79.526237 294.021545,79.526237 288.017731,79.526237 
	C290.782379,84.937668 292.527039,85.273911 299.102539,82.047806 
	C300.316833,83.406357 301.604584,84.847054 302.888275,86.283257 
	C296.587463,92.382576 288.087280,92.101311 281.418060,85.426865 
M292.541199,75.004501 
	C294.299255,75.004501 296.057312,75.004501 297.815369,75.004501 
	C298.032928,74.495239 298.250488,73.985977 298.468048,73.476715 
	C297.062256,72.558563 295.590057,70.809868 294.266144,70.915710 
	C292.248932,71.076965 290.334351,72.521889 288.376190,73.421700 
	C288.552521,73.915283 288.728851,74.408867 288.905182,74.902458 
	C289.817078,74.955963 290.728973,75.009468 292.541199,75.004501 
z"/>
<path fill="#186DAE" opacity="1.000000" stroke="none" 
	d="
M116.073051,70.128731 
	C116.325768,68.513649 116.610168,66.233398 117.089432,66.191673 
	C121.973488,65.766548 126.996231,65.010590 131.765167,65.744400 
	C136.265152,66.436829 137.244995,70.670418 136.802383,74.799919 
	C136.273727,79.732521 135.477798,84.636475 134.630920,90.757874 
	C131.722260,89.858994 129.238190,88.889969 126.662964,88.403526 
	C125.748360,88.230774 124.579704,89.685417 123.582901,89.614265 
	C120.123253,89.367371 116.149544,89.647263 113.452675,87.978889 
	C111.919785,87.030602 111.319260,82.034195 112.423599,80.033775 
	C113.685791,77.747414 117.150635,76.298363 119.951248,75.354980 
	C122.366280,74.541496 125.192322,74.948174 127.915009,74.811470 
	C128.178406,70.643906 125.493286,71.156250 122.945602,71.138069 
	C120.694061,71.122017 118.445213,70.729118 116.073051,70.128731 
M127.646400,79.562210 
	C127.018997,79.415520 126.265869,78.971100 125.785995,79.173759 
	C123.722794,80.045059 121.739876,81.106468 119.727715,82.098625 
	C120.311211,82.983032 121.208694,84.704613 121.429428,84.621819 
	C123.543312,83.828987 125.564194,82.770096 127.551018,81.677109 
	C127.832916,81.522034 127.789772,80.776108 127.646400,79.562210 
z"/>
<path fill="#3E3E3E" opacity="1.000000" stroke="none" 
	d="
M228.557373,81.520355 
	C228.071152,84.567360 227.677475,87.168533 227.276871,89.815483 
	C222.014709,90.588470 217.126724,88.992111 212.049011,90.282066 
	C207.840851,91.351112 204.432968,87.890945 203.978745,83.977631 
	C203.518097,80.008720 206.352142,76.075813 210.643890,75.395447 
	C213.905594,74.878365 217.264130,74.972298 220.592453,74.793678 
	C219.620499,70.888603 219.620499,70.888603 209.563278,71.974548 
	C209.169067,71.213455 208.638260,70.393555 208.313904,69.498817 
	C208.045822,68.759300 208.021698,67.931351 207.736847,66.231979 
	C211.848679,65.642494 215.704849,64.583984 219.541962,64.648956 
	C226.665558,64.769608 229.658081,68.454224 229.207352,75.607422 
	C229.092255,77.434250 228.839447,79.252396 228.557373,81.520355 
M217.460922,79.113228 
	C216.186295,79.419083 214.665771,79.402428 213.712219,80.129410 
	C212.900330,80.748421 212.097763,82.560379 212.451904,83.237022 
	C212.922394,84.135971 214.960480,85.207115 215.551620,84.865593 
	C217.381271,83.808533 218.844498,82.117172 220.449966,80.672050 
	C219.709366,80.152046 218.968781,79.632042 217.460922,79.113228 
z"/>
<path fill="#196DAD" opacity="1.000000" stroke="none" 
	d="
M106.627106,73.772240 
	C101.242973,70.803146 97.767609,70.786018 96.223259,74.589424 
	C95.329422,76.790726 95.376511,81.163948 96.690331,82.048073 
	C98.612602,83.341660 102.051949,82.380875 104.844734,82.380875 
	C104.941429,81.852028 105.038116,81.323174 105.134811,80.794327 
	C106.774567,82.026138 108.414322,83.257950 110.049614,84.486412 
	C105.199417,91.147850 95.906578,92.478951 90.162018,87.658478 
	C85.020302,83.343872 85.103714,74.023041 90.406387,68.878143 
	C96.516373,62.949951 107.977982,62.858746 112.118988,70.261581 
	C110.445297,71.369514 108.717461,72.513298 106.627106,73.772240 
z"/>
<path fill="#424241" opacity="1.000000" stroke="none" 
	d="
M314.139465,89.963440 
	C309.276886,88.467285 309.137848,85.041939 309.221375,81.077316 
	C309.292297,77.709846 313.020233,73.513069 307.462952,70.841942 
	C307.057953,70.647278 307.755920,67.040161 308.690796,65.464363 
	C309.807373,63.582268 311.731995,62.179543 313.306580,60.569168 
	C313.013763,60.133968 312.720947,59.698772 312.428131,59.263573 
	C314.966492,59.263573 317.504852,59.263573 320.372375,59.263573 
	C320.259186,60.984631 320.143494,62.743988 320.009949,64.774559 
	C321.811310,65.004562 323.561188,65.227997 325.724854,65.504265 
	C325.453888,67.549370 325.200775,69.459618 324.921539,71.567268 
	C323.014526,71.741707 321.243195,71.903725 319.505524,72.062668 
	C316.415222,81.675926 316.883331,83.529945 322.661194,84.215599 
	C323.100922,85.556335 323.558838,86.952553 324.383942,89.468346 
	C320.832977,89.669655 317.677704,89.848526 314.139465,89.963440 
z"/>
<path fill="#186BAC" opacity="1.000000" stroke="none" 
	d="
M139.318008,88.088501 
	C140.254211,81.584206 141.338531,75.529030 141.918457,69.425926 
	C142.240570,66.036125 143.492020,64.836960 146.878281,65.079887 
	C150.714661,65.355103 154.585953,65.143394 158.908066,65.143394 
	C158.593170,67.312180 158.295090,69.365135 157.971283,71.595329 
	C145.604630,72.344009 150.587280,83.164398 146.782455,90.378197 
	C144.642166,89.849144 141.948792,89.183372 139.318008,88.088501 
z"/>
<path fill="#3F3F3E" opacity="1.000000" stroke="none" 
	d="
M250.647003,71.670563 
	C245.176743,71.834900 242.343750,74.197510 241.856400,79.509819 
	C241.540817,82.949837 240.762131,86.347374 240.175125,89.858658 
	C237.426208,89.858658 234.968887,89.858658 231.795639,89.858658 
	C232.955505,81.596817 234.089172,73.521675 235.164078,65.864960 
	C240.772461,65.864960 246.049194,65.864960 251.723938,65.864960 
	C251.524918,67.261108 251.231262,69.321251 250.647003,71.670563 
z"/>
<path fill="#1670B1" opacity="1.000000" stroke="none" 
	d="
M218.507324,24.067194 
	C206.401459,25.679752 196.797791,20.479439 187.166840,14.482035 
	C202.581680,12.906200 217.235565,16.113968 231.040817,23.957485 
	C227.012772,23.957485 222.984741,23.957485 218.507324,24.067194 
z"/>
<path fill="#C72A31" opacity="1.000000" stroke="none" 
	d="
M84.846191,67.015144 
	C83.695747,74.819878 82.587959,82.191422 81.449211,89.768967 
	C78.637711,89.768967 76.050453,89.768967 73.052628,89.768967 
	C74.127136,81.610512 75.179504,73.620178 76.369461,64.585136 
	C79.357880,65.285576 82.123367,65.933769 84.846191,67.015144 
z"/>
<path fill="#C72C35" opacity="1.000000" stroke="none" 
	d="
M257.149902,44.853943 
	C258.367279,45.002476 259.584656,45.151005 260.997131,45.948341 
	C261.800568,46.692520 262.408936,46.787888 263.017273,46.883247 
	C265.385864,47.352333 267.754456,47.821415 270.820526,48.475010 
	C273.705231,47.785198 275.892426,46.910873 278.079651,46.036552 
	C288.378967,46.036552 298.678314,46.036552 308.977631,46.036552 
	C309.050018,46.778954 309.122375,47.521351 309.194763,48.263752 
	C306.633057,48.825142 304.080414,49.819401 301.508118,49.873138 
	C290.247955,50.108368 278.969055,50.397011 267.725708,49.947388 
	C264.027435,49.799492 260.415894,47.484344 256.772095,45.694115 
	C256.902954,45.103317 257.026428,44.978630 257.149902,44.853943 
z"/>
<path fill="#CC3F47" opacity="1.000000" stroke="none" 
	d="
M236.730682,41.223686 
	C238.423950,43.612541 239.858047,45.751614 241.292130,47.890690 
	C231.551346,37.561039 220.082794,36.873959 206.948349,41.318588 
	C214.485031,34.144840 228.939636,34.195004 236.730682,41.223686 
z"/>
<path fill="#CF444A" opacity="1.000000" stroke="none" 
	d="
M95.408058,36.401817 
	C104.841812,38.971920 107.090179,40.585316 108.672768,46.272049 
	C99.590988,38.836124 90.046379,36.618500 79.331604,41.425312 
	C83.739914,36.863331 89.117836,35.815010 95.408058,36.401817 
z"/>
<path fill="#C72A33" opacity="1.000000" stroke="none" 
	d="
M82.671967,61.932549 
	C79.867294,62.254433 76.967850,62.519466 77.008453,59.313572 
	C77.030914,57.540409 78.760658,54.954006 80.364449,54.290878 
	C81.731705,53.725552 84.882202,54.849159 85.709106,56.179535 
	C87.164383,58.520897 86.229546,61.001770 82.671967,61.932549 
z"/>
<path fill="#CA3138" opacity="1.000000" stroke="none" 
	d="
M177.991898,25.986649 
	C181.015091,26.294062 183.587601,26.588196 186.160126,26.882328 
	C186.099777,27.312342 186.039429,27.742353 185.979080,28.172367 
	C179.122513,26.701729 171.424332,31.009237 164.393402,24.281517 
	C169.391769,24.924702 173.466492,25.449034 177.991898,25.986649 
z"/>
<path fill="#CE3F45" opacity="1.000000" stroke="none" 
	d="
M114.367943,33.240135 
	C115.684288,33.498272 116.603523,33.717243 117.721886,33.983646 
	C111.533104,39.250984 109.711250,39.204651 106.039429,33.200974 
	C108.957718,33.200974 111.464279,33.200974 114.367943,33.240135 
z"/>
<path fill="#F3E6E7" opacity="1.000000" stroke="none" 
	d="
M277.682739,46.012749 
	C275.892426,46.910873 273.705231,47.785198 271.238922,48.456322 
	C270.565979,47.039715 270.172150,45.826309 269.551239,43.913456 
	C272.342987,44.662590 274.814423,45.325768 277.682739,46.012749 
z"/>
<path fill="#C72C35" opacity="1.000000" stroke="none" 
	d="
M256.581909,45.401897 
	C256.121552,45.036831 255.858795,44.497868 255.596039,43.958908 
	C256.081299,44.100582 256.566589,44.242260 257.100891,44.618942 
	C257.026428,44.978630 256.902954,45.103317 256.581909,45.401897 
z"/>
<path fill="#F3E6E7" opacity="1.000000" stroke="none" 
	d="
M262.995728,46.639778 
	C262.408936,46.787888 261.800568,46.692520 261.175720,46.276070 
	C261.764221,46.102089 262.369202,46.249195 262.995728,46.639778 
z"/>
<path fill="#EEEEEE" opacity="1.000000" stroke="none" 
	d="
M292.091034,75.033737 
	C290.728973,75.009468 289.817078,74.955963 288.905182,74.902458 
	C288.728851,74.408867 288.552521,73.915283 288.376190,73.421700 
	C290.334351,72.521889 292.248932,71.076965 294.266144,70.915710 
	C295.590057,70.809868 297.062256,72.558563 298.468048,73.476715 
	C298.250488,73.985977 298.032928,74.495239 297.815369,75.004501 
	C296.057312,75.004501 294.299255,75.004501 292.091034,75.033737 
z"/>
<path fill="#E0E9EF" opacity="1.000000" stroke="none" 
	d="
M127.771736,79.932938 
	C127.789772,80.776108 127.832916,81.522034 127.551018,81.677109 
	C125.564194,82.770096 123.543312,83.828987 121.429428,84.621819 
	C121.208694,84.704613 120.311211,82.983032 119.727715,82.098625 
	C121.739876,81.106468 123.722794,80.045059 125.785995,79.173759 
	C126.265869,78.971100 127.018997,79.415520 127.771736,79.932938 
z"/>
<path fill="#E4E4E4" opacity="1.000000" stroke="none" 
	d="
M217.844543,79.112633 
	C218.968781,79.632042 219.709366,80.152046 220.449966,80.672050 
	C218.844498,82.117172 217.381271,83.808533 215.551620,84.865593 
	C214.960480,85.207115 212.922394,84.135971 212.451904,83.237022 
	C212.097763,82.560379 212.900330,80.748421 213.712219,80.129410 
	C214.665771,79.402428 216.186295,79.419083 217.844543,79.112633 
z"/>
</svg>