<?xml version="1.0" encoding="UTF-8" standalone="no"?>
<!-- Created with Inkscape (http://www.inkscape.org/) -->

<svg
   version="1.1"
   id="svg1"
   width="880"
   height="880"
   viewBox="0 0 880 880"
   sodipodi:docname="athlete-pumping-iron-publicdomainvectors.org.svg"
   inkscape:version="1.3.2 (091e20e, 2023-11-25, custom)"
   xmlns:inkscape="http://www.inkscape.org/namespaces/inkscape"
   xmlns:sodipodi="http://sodipodi.sourceforge.net/DTD/sodipodi-0.dtd"
   xmlns="http://www.w3.org/2000/svg"
   xmlns:svg="http://www.w3.org/2000/svg">
  <defs
     id="defs1">
    <clipPath
       clipPathUnits="userSpaceOnUse"
       id="clipPath3">
      <path
         d="M 0,660 H 660 V 0 H 0 Z"
         transform="translate(-336.32811,-106.65141)"
         id="path3" />
    </clipPath>
    <clipPath
       clipPathUnits="userSpaceOnUse"
       id="clipPath5">
      <path
         d="M 0,660 H 660 V 0 H 0 Z"
         id="path5" />
    </clipPath>
    <clipPath
       clipPathUnits="userSpaceOnUse"
       id="clipPath7">
      <path
         d="M 0,660 H 660 V 0 H 0 Z"
         id="path7" />
    </clipPath>
    <clipPath
       clipPathUnits="userSpaceOnUse"
       id="clipPath9">
      <path
         d="M 0,660 H 660 V 0 H 0 Z"
         id="path9" />
    </clipPath>
    <clipPath
       clipPathUnits="userSpaceOnUse"
       id="clipPath11">
      <path
         d="M 0,660 H 660 V 0 H 0 Z"
         id="path11" />
    </clipPath>
    <clipPath
       clipPathUnits="userSpaceOnUse"
       id="clipPath13">
      <path
         d="M 0,660 H 660 V 0 H 0 Z"
         id="path13" />
    </clipPath>
    <clipPath
       clipPathUnits="userSpaceOnUse"
       id="clipPath15">
      <path
         d="M 0,660 H 660 V 0 H 0 Z"
         id="path15" />
    </clipPath>
    <clipPath
       clipPathUnits="userSpaceOnUse"
       id="clipPath17">
      <path
         d="M 0,660 H 660 V 0 H 0 Z"
         id="path17" />
    </clipPath>
    <clipPath
       clipPathUnits="userSpaceOnUse"
       id="clipPath19">
      <path
         d="M 0,660 H 660 V 0 H 0 Z"
         id="path19" />
    </clipPath>
    <clipPath
       clipPathUnits="userSpaceOnUse"
       id="clipPath21">
      <path
         d="M 0,660 H 660 V 0 H 0 Z"
         id="path21" />
    </clipPath>
    <clipPath
       clipPathUnits="userSpaceOnUse"
       id="clipPath23">
      <path
         d="M 0,660 H 660 V 0 H 0 Z"
         id="path23" />
    </clipPath>
    <clipPath
       clipPathUnits="userSpaceOnUse"
       id="clipPath25">
      <path
         d="M 0,660 H 660 V 0 H 0 Z"
         transform="translate(-280.1602,-555.04051)"
         id="path25" />
    </clipPath>
    <clipPath
       clipPathUnits="userSpaceOnUse"
       id="clipPath27">
      <path
         d="M 0,660 H 660 V 0 H 0 Z"
         transform="translate(-181.8477,-291.0967)"
         id="path27" />
    </clipPath>
    <clipPath
       clipPathUnits="userSpaceOnUse"
       id="clipPath29">
      <path
         d="M 0,660 H 660 V 0 H 0 Z"
         transform="translate(-328.30711,-348.97951)"
         id="path29" />
    </clipPath>
    <clipPath
       clipPathUnits="userSpaceOnUse"
       id="clipPath31">
      <path
         d="M 0,660 H 660 V 0 H 0 Z"
         transform="translate(-396.69821,-411.42331)"
         id="path31" />
    </clipPath>
    <clipPath
       clipPathUnits="userSpaceOnUse"
       id="clipPath33">
      <path
         d="M 0,660 H 660 V 0 H 0 Z"
         transform="translate(-384.57621,-323.67381)"
         id="path33" />
    </clipPath>
    <clipPath
       clipPathUnits="userSpaceOnUse"
       id="clipPath35">
      <path
         d="M 0,660 H 660 V 0 H 0 Z"
         transform="translate(-214.4263,-323.67381)"
         id="path35" />
    </clipPath>
    <clipPath
       clipPathUnits="userSpaceOnUse"
       id="clipPath37">
      <path
         d="M 0,660 H 660 V 0 H 0 Z"
         transform="translate(-271.123,-400.57621)"
         id="path37" />
    </clipPath>
    <clipPath
       clipPathUnits="userSpaceOnUse"
       id="clipPath39">
      <path
         d="M 0,660 H 660 V 0 H 0 Z"
         transform="translate(-396.69821,-412.62551)"
         id="path39" />
    </clipPath>
    <clipPath
       clipPathUnits="userSpaceOnUse"
       id="clipPath41">
      <path
         d="M 0,660 H 660 V 0 H 0 Z"
         transform="translate(-390.71291,-352.27831)"
         id="path41" />
    </clipPath>
    <clipPath
       clipPathUnits="userSpaceOnUse"
       id="clipPath43">
      <path
         d="M 0,660 H 660 V 0 H 0 Z"
         transform="translate(-119.4072,-502.00591)"
         id="path43" />
    </clipPath>
    <clipPath
       clipPathUnits="userSpaceOnUse"
       id="clipPath45">
      <path
         d="M 0,660 H 660 V 0 H 0 Z"
         transform="translate(-139.57521,-439.67191)"
         id="path45" />
    </clipPath>
    <clipPath
       clipPathUnits="userSpaceOnUse"
       id="clipPath47">
      <path
         d="M 0,660 H 660 V 0 H 0 Z"
         transform="translate(-139.395,-479.81881)"
         id="path47" />
    </clipPath>
    <clipPath
       clipPathUnits="userSpaceOnUse"
       id="clipPath49">
      <path
         d="M 0,660 H 660 V 0 H 0 Z"
         transform="translate(-167.7612,-445.30081)"
         id="path49" />
    </clipPath>
    <clipPath
       clipPathUnits="userSpaceOnUse"
       id="clipPath51">
      <path
         d="M 0,660 H 660 V 0 H 0 Z"
         transform="translate(-198.50541,-502.00591)"
         id="path51" />
    </clipPath>
    <clipPath
       clipPathUnits="userSpaceOnUse"
       id="clipPath53">
      <path
         d="M 0,660 H 660 V 0 H 0 Z"
         transform="translate(-218.67241,-439.67191)"
         id="path53" />
    </clipPath>
    <clipPath
       clipPathUnits="userSpaceOnUse"
       id="clipPath55">
      <path
         d="M 0,660 H 660 V 0 H 0 Z"
         transform="translate(-217.44481,-479.81881)"
         id="path55" />
    </clipPath>
    <clipPath
       clipPathUnits="userSpaceOnUse"
       id="clipPath57">
      <path
         d="M 0,660 H 660 V 0 H 0 Z"
         transform="translate(-223.2559,-461.85841)"
         id="path57" />
    </clipPath>
    <clipPath
       clipPathUnits="userSpaceOnUse"
       id="clipPath59">
      <path
         d="M 0,660 H 660 V 0 H 0 Z"
         transform="translate(-322.32571,-471.88481)"
         id="path59" />
    </clipPath>
    <clipPath
       clipPathUnits="userSpaceOnUse"
       id="clipPath61">
      <path
         d="M 0,660 H 660 V 0 H 0 Z"
         transform="translate(-283.1953,-537.24712)"
         id="path61" />
    </clipPath>
    <clipPath
       clipPathUnits="userSpaceOnUse"
       id="clipPath63">
      <path
         d="M 0,660 H 660 V 0 H 0 Z"
         transform="translate(-283.1953,-537.24712)"
         id="path63" />
    </clipPath>
    <clipPath
       clipPathUnits="userSpaceOnUse"
       id="clipPath65">
      <path
         d="M 0,660 H 660 V 0 H 0 Z"
         transform="translate(-296.8438,-591.76711)"
         id="path65" />
    </clipPath>
    <clipPath
       clipPathUnits="userSpaceOnUse"
       id="clipPath67">
      <path
         d="M 0,660 H 660 V 0 H 0 Z"
         transform="translate(-310.67091,-336.21091)"
         id="path67" />
    </clipPath>
    <clipPath
       clipPathUnits="userSpaceOnUse"
       id="clipPath69">
      <path
         d="M 0,660 H 660 V 0 H 0 Z"
         transform="translate(-283.69531,-564.20801)"
         id="path69" />
    </clipPath>
    <clipPath
       clipPathUnits="userSpaceOnUse"
       id="clipPath71">
      <path
         d="M 0,660 H 660 V 0 H 0 Z"
         transform="translate(-313.94631,-560.80321)"
         id="path71" />
    </clipPath>
    <clipPath
       clipPathUnits="userSpaceOnUse"
       id="clipPath73">
      <path
         d="M 0,660 H 660 V 0 H 0 Z"
         transform="translate(-333.19731,-529.11082)"
         id="path73" />
    </clipPath>
    <clipPath
       clipPathUnits="userSpaceOnUse"
       id="clipPath75">
      <path
         d="M 0,660 H 660 V 0 H 0 Z"
         transform="translate(-324.63771,-529.14061)"
         id="path75" />
    </clipPath>
    <clipPath
       clipPathUnits="userSpaceOnUse"
       id="clipPath77">
      <path
         d="M 0,660 H 660 V 0 H 0 Z"
         transform="translate(-376.64361,-151.3027)"
         id="path77" />
    </clipPath>
    <clipPath
       clipPathUnits="userSpaceOnUse"
       id="clipPath79">
      <path
         d="M 0,660 H 660 V 0 H 0 Z"
         transform="translate(-188.3203,-151.3027)"
         id="path79" />
    </clipPath>
    <clipPath
       clipPathUnits="userSpaceOnUse"
       id="clipPath81">
      <path
         d="M 0,660 H 660 V 0 H 0 Z"
         transform="translate(-277.67091,-514.18211)"
         id="path81" />
    </clipPath>
    <clipPath
       clipPathUnits="userSpaceOnUse"
       id="clipPath83">
      <path
         d="M 0,660 H 660 V 0 H 0 Z"
         transform="translate(-268.50391,-537.36232)"
         id="path83" />
    </clipPath>
    <clipPath
       clipPathUnits="userSpaceOnUse"
       id="clipPath85">
      <path
         d="M 0,660 H 660 V 0 H 0 Z"
         transform="translate(-292.68991,-537.36232)"
         id="path85" />
    </clipPath>
  </defs>
  <sodipodi:namedview
     id="namedview1"
     pagecolor="#ffffff"
     bordercolor="#000000"
     borderopacity="0.25"
     inkscape:showpageshadow="2"
     inkscape:pageopacity="0.0"
     inkscape:pagecheckerboard="0"
     inkscape:deskcolor="#d1d1d1"
     inkscape:zoom="0.67272727"
     inkscape:cx="439.25676"
     inkscape:cy="440"
     inkscape:window-width="1440"
     inkscape:window-height="830"
     inkscape:window-x="-6"
     inkscape:window-y="-6"
     inkscape:window-maximized="1"
     inkscape:current-layer="g1">
    <inkscape:page
       x="0"
       y="0"
       inkscape:label="1"
       id="page1"
       width="880"
       height="880"
       margin="142.20134 92.468002 63.816002 109.34053"
       bleed="0" />
  </sodipodi:namedview>
  <g
     id="g1"
     inkscape:groupmode="layer"
     inkscape:label="1">
    <g
       id="group-MC0">
      <path
         id="path2"
         d="M 0,0 C 140.075,0 254.321,4.001 254.321,8.904 254.321,13.809 140.075,17.81 0,17.81 -140.075,17.81 -254.323,13.809 -254.323,8.904 -254.323,4.001 -140.075,0 0,0"
         style="fill:#b2a29e;fill-opacity:1;fill-rule:evenodd;stroke:none"
         transform="matrix(1.3333333,0,0,-1.3333333,448.43747,737.79813)"
         clip-path="url(#clipPath3)" />
      <path
         id="path4"
         d="m 217.686,117.785 h 18.167 v 139.2 h -18.167 z"
         style="fill:#502b18;fill-opacity:1;fill-rule:evenodd;stroke:none"
         transform="matrix(1.3333333,0,0,-1.3333333,0,880)"
         clip-path="url(#clipPath5)" />
      <path
         id="path6"
         d="m 226.769,117.785 h 9.085 v 139.2 h -9.085 z"
         style="fill:#382016;fill-opacity:1;fill-rule:evenodd;stroke:none"
         transform="matrix(1.3333333,0,0,-1.3333333,0,880)"
         clip-path="url(#clipPath7)" />
      <path
         id="path8"
         d="m 116.638,117.785 h 18.166 v 139.2 h -18.166 z"
         style="fill:#502b18;fill-opacity:1;fill-rule:evenodd;stroke:none"
         transform="matrix(1.3333333,0,0,-1.3333333,0,880)"
         clip-path="url(#clipPath9)" />
      <path
         id="path10"
         d="m 125.722,117.785 h 9.083 v 139.2 h -9.083 z"
         style="fill:#382016;fill-opacity:1;fill-rule:evenodd;stroke:none"
         transform="matrix(1.3333333,0,0,-1.3333333,0,880)"
         clip-path="url(#clipPath11)" />
      <path
         id="path12"
         d="m 531.334,117.785 h 18.165 v 139.2 h -18.165 z"
         style="fill:#502b18;fill-opacity:1;fill-rule:evenodd;stroke:none"
         transform="matrix(1.3333333,0,0,-1.3333333,0,880)"
         clip-path="url(#clipPath13)" />
      <path
         id="path14"
         d="m 540.415,117.785 h 9.084 v 139.2 h -9.084 z"
         style="fill:#382016;fill-opacity:1;fill-rule:evenodd;stroke:none"
         transform="matrix(1.3333333,0,0,-1.3333333,0,880)"
         clip-path="url(#clipPath15)" />
      <path
         id="path16"
         d="m 430.284,117.785 h 18.167 v 139.2 h -18.167 z"
         style="fill:#502b18;fill-opacity:1;fill-rule:evenodd;stroke:none"
         transform="matrix(1.3333333,0,0,-1.3333333,0,880)"
         clip-path="url(#clipPath17)" />
      <path
         id="path18"
         d="m 439.368,117.785 h 9.083 v 139.2 h -9.083 z"
         style="fill:#382016;fill-opacity:1;fill-rule:evenodd;stroke:none"
         transform="matrix(1.3333333,0,0,-1.3333333,0,880)"
         clip-path="url(#clipPath19)" />
      <path
         id="path20"
         d="m 206.051,248.865 h 352.531 v 15.191 H 206.051 Z"
         style="fill:#78411c;fill-opacity:1;fill-rule:evenodd;stroke:none"
         transform="matrix(1.3333333,0,0,-1.3333333,0,880)"
         clip-path="url(#clipPath21)" />
      <path
         id="path22"
         d="m 105.002,248.865 h 352.532 v 15.191 H 105.002 Z"
         style="fill:#985422;fill-opacity:1;fill-rule:evenodd;stroke:none"
         transform="matrix(1.3333333,0,0,-1.3333333,0,880)"
         clip-path="url(#clipPath23)" />
      <path
         id="path24"
         d="m 0,0 c 11.539,0 20.952,9.413 20.952,20.953 0,11.541 -9.413,20.953 -20.952,20.953 -11.542,0 -20.955,-9.412 -20.955,-20.953 C -20.955,9.413 -11.542,0 0,0"
         style="fill:#463d3b;fill-opacity:1;fill-rule:evenodd;stroke:none"
         transform="matrix(1.3333333,0,0,-1.3333333,373.54693,139.946)"
         clip-path="url(#clipPath25)" />
      <path
         id="path26"
         d="m 0,0 v 0 c 0,17.918 14.661,32.577 32.577,32.577 h 130.841 c 17.915,0 32.576,-14.659 32.576,-32.577 0,-17.917 -14.661,-32.576 -32.576,-32.576 H 32.577 C 14.661,-32.576 0,-17.917 0,0"
         style="fill:#769a2a;fill-opacity:1;fill-rule:evenodd;stroke:none"
         transform="matrix(1.3333333,0,0,-1.3333333,242.4636,491.87107)"
         clip-path="url(#clipPath27)" />
      <path
         id="path28"
         d="m 0,0 h 47.923 c 24.877,0 45.23,-20.352 45.23,-45.228 v -0.002 c 0,-24.877 -20.353,-45.229 -45.23,-45.229 H 0 c -24.876,0 -45.229,20.352 -45.229,45.229 v 0.002 C -45.229,-20.352 -24.876,0 0,0"
         style="fill:#769a2a;fill-opacity:1;fill-rule:evenodd;stroke:none"
         transform="matrix(1.3333333,0,0,-1.3333333,437.7428,414.694)"
         clip-path="url(#clipPath29)" />
      <path
         id="path30"
         d="m 0,0 v -48.823 -7.438 c 10.974,9.281 20.48,22.032 28.937,33.622 -5.078,2.347 -10.136,5.374 -14.983,9.07 C 8.537,-9.437 3.857,-4.83 0,0 M -122.576,92.086 H -18.857 C 2.975,92.086 21.347,76.527 25.724,55.948 35.693,54.063 46.38,49.318 56.2,41.829 69.696,31.538 78.628,18.301 81.615,5.992 c 2.921,-2.278 4.814,-5.82 4.85,-9.813 0.022,-2.694 -0.804,-5.196 -2.229,-7.254 1.164,-7.428 -0.559,-16.449 -6.552,-25.849 -11.94,-18.721 -48.625,-32.325 -69.159,-40.675 -6.385,-2.596 -12.299,-2.412 -16.543,-0.729 -10.206,-17.407 -29.121,-29.164 -50.65,-29.164 h -0.002 c -32.266,0 -58.667,26.401 -58.667,58.669 v 17.396 c -3.912,6.211 -6.748,13.161 -8.238,20.582 -10.262,-12.753 -23.16,-21.145 -35.131,-23.942 -2.304,-2.903 -5.861,-4.766 -9.854,-4.766 -2.695,0 -5.191,0.848 -7.236,2.29 -7.439,-1.098 -16.444,0.7 -25.792,6.775 -18.617,12.099 -31.908,48.898 -40.08,69.505 -6.917,17.441 6.712,31.231 14.997,17.32 8.893,-14.928 25.254,-27.407 39.787,-38.204 2.388,5.058 5.46,10.089 9.198,14.905 3.563,4.592 7.47,8.646 11.56,12.106 -0.014,0.456 -0.022,0.912 -0.022,1.369 0,25.066 20.508,45.573 45.572,45.573"
         style="fill:#f28f62;fill-opacity:1;fill-rule:evenodd;stroke:none"
         transform="matrix(1.3333333,0,0,-1.3333333,528.93093,331.4356)"
         clip-path="url(#clipPath31)" />
      <path
         id="path32"
         d="m 0,0 v 0 c 17.917,0 32.577,-14.659 32.577,-32.577 v -130.838 c 0,-17.918 -14.66,-32.577 -32.577,-32.577 -17.918,0 -32.578,14.659 -32.578,32.577 V -32.577 C -32.578,-14.659 -17.918,0 0,0"
         style="fill:#8bb526;fill-opacity:1;fill-rule:evenodd;stroke:none"
         transform="matrix(1.3333333,0,0,-1.3333333,512.76827,448.43493)"
         clip-path="url(#clipPath33)" />
      <path
         id="path34"
         d="m 0,0 v 0 c 17.917,0 32.576,-14.659 32.576,-32.577 v -130.838 c 0,-17.918 -14.659,-32.577 -32.576,-32.577 -17.917,0 -32.579,14.659 -32.579,32.577 V -32.577 C -32.579,-14.659 -17.917,0 0,0"
         style="fill:#769a2a;fill-opacity:1;fill-rule:evenodd;stroke:none"
         transform="matrix(1.3333333,0,0,-1.3333333,285.90173,448.43493)"
         clip-path="url(#clipPath35)" />
      <path
         id="path36"
         d="M 0,0 C -16.734,0.632 -22.969,17.421 -26.068,39.03 -27.866,17.693 -22.692,1.064 -10.521,-10.843 -6.804,-7.439 -3.267,-3.852 0,0"
         style="fill:#d66c42;fill-opacity:1;fill-rule:evenodd;stroke:none"
         transform="matrix(1.3333333,0,0,-1.3333333,361.49733,345.8984)"
         clip-path="url(#clipPath37)" />
      <path
         id="path38"
         d="M 0,0 C -5.098,9.886 -11.882,18.633 -22.715,22.07 -34.309,2.422 -47.919,-13.797 -73.527,-9.621 c 22.532,-8.438 44.711,-9.442 54.67,9.359 7.889,-31.278 12.449,-52.798 4.363,-88.267 C -9.5,-81.601 -2.022,-70.355 0,-61.549 0.062,-38.699 -0.063,-22.851 0,0"
         style="fill:#d66c42;fill-opacity:1;fill-rule:evenodd;stroke:none"
         transform="matrix(1.3333333,0,0,-1.3333333,528.93093,329.83267)"
         clip-path="url(#clipPath39)" />
      <path
         id="path40"
         d="m 0,0 c 10.034,3.778 18.17,-0.13 18.17,-8.73 0,-8.602 -8.136,-18.638 -18.17,-22.416 -10.035,-3.78 -18.169,0.129 -18.169,8.73 0,8.602 8.134,18.638 18.169,22.416"
         style="fill:#f28f62;fill-opacity:1;fill-rule:evenodd;stroke:none"
         transform="matrix(1.3333333,0,0,-1.3333333,520.95053,410.2956)"
         clip-path="url(#clipPath41)" />
      <path
         id="path42"
         d="m 0,0 c -7.232,0 -13.096,-13.954 -13.096,-31.167 0,-17.213 5.864,-31.167 13.096,-31.167 H 20.168 V 0 Z"
         style="fill:#2f2825;fill-opacity:1;fill-rule:evenodd;stroke:none"
         transform="matrix(1.3333333,0,0,-1.3333333,159.2096,210.6588)"
         clip-path="url(#clipPath43)" />
      <path
         id="path44"
         d="m 0,0 c 7.213,0 13.096,14 13.096,31.167 0,17.167 -5.883,31.167 -13.096,31.167 -7.213,0 -13.096,-14 -13.096,-31.167 C -13.096,14 -7.213,0 0,0"
         style="fill:#463d3b;fill-opacity:1;fill-rule:evenodd;stroke:none"
         transform="matrix(1.3333333,0,0,-1.3333333,186.10027,293.7708)"
         clip-path="url(#clipPath45)" />
      <path
         id="path46"
         d="m 0,0 c -2.083,0 -3.772,-4.021 -3.772,-8.98 0,-4.959 1.689,-8.98 3.772,-8.98 H 49.683 V 0 Z"
         style="fill:#948681;fill-opacity:1;fill-rule:evenodd;stroke:none"
         transform="matrix(1.3333333,0,0,-1.3333333,185.86,240.2416)"
         clip-path="url(#clipPath47)" />
      <path
         id="path48"
         d="m 0,0 c 10.477,0 19.021,9.207 19.021,20.496 0,11.289 -8.544,20.497 -19.021,20.497 -10.476,0 -19.022,-9.208 -19.022,-20.497 C -19.022,9.207 -10.476,0 0,0"
         style="fill:#f28f62;fill-opacity:1;fill-rule:evenodd;stroke:none"
         transform="matrix(1.3333333,0,0,-1.3333333,223.6816,286.2656)"
         clip-path="url(#clipPath49)" />
      <path
         id="path50"
         d="m 0,0 c -7.231,0 -13.096,-13.954 -13.096,-31.167 0,-17.213 5.865,-31.167 13.096,-31.167 H 20.167 V 0 Z"
         style="fill:#2f2825;fill-opacity:1;fill-rule:evenodd;stroke:none"
         transform="matrix(1.3333333,0,0,-1.3333333,264.67387,210.6588)"
         clip-path="url(#clipPath51)" />
      <path
         id="path52"
         d="m 0,0 c 7.213,0 13.096,14 13.096,31.167 0,17.167 -5.883,31.167 -13.096,31.167 -7.213,0 -13.096,-14 -13.096,-31.167 C -13.096,14 -7.213,0 0,0"
         style="fill:#463d3b;fill-opacity:1;fill-rule:evenodd;stroke:none"
         transform="matrix(1.3333333,0,0,-1.3333333,291.5632,293.7708)"
         clip-path="url(#clipPath53)" />
      <path
         id="path54"
         d="m 0,0 c -2.084,0 -3.772,-4.021 -3.772,-8.98 0,-4.959 1.688,-8.98 3.772,-8.98 H 5.811 V 0 Z"
         style="fill:#948681;fill-opacity:1;fill-rule:evenodd;stroke:none"
         transform="matrix(1.3333333,0,0,-1.3333333,289.9264,240.2416)"
         clip-path="url(#clipPath55)" />
      <path
         id="path56"
         d="m 0,0 c 2.08,0 3.775,4.035 3.775,8.98 0,4.946 -1.695,8.98 -3.775,8.98 -2.077,0 -3.772,-4.034 -3.772,-8.98 C -3.772,4.035 -2.077,0 0,0"
         style="fill:#b2a29e;fill-opacity:1;fill-rule:evenodd;stroke:none"
         transform="matrix(1.3333333,0,0,-1.3333333,297.67453,264.1888)"
         clip-path="url(#clipPath57)" />
      <path
         id="path58"
         d="m 0,0 c 31.952,0 58.013,8.53 58.013,18.989 0,10.458 -26.061,18.988 -58.013,18.988 -31.955,0 -58.015,-8.53 -58.015,-18.988 C -58.015,8.53 -31.955,0 0,0"
         style="fill:#f28f62;fill-opacity:1;fill-rule:evenodd;stroke:none"
         transform="matrix(1.3333333,0,0,-1.3333333,429.7676,250.82027)"
         clip-path="url(#clipPath59)" />
      <path
         id="path60"
         d="M 0,0 37.611,17.26 64.486,-41.298 26.874,-58.559 Z"
         style="fill:#f28f62;fill-opacity:1;fill-rule:evenodd;stroke:none"
         transform="matrix(1.3333333,0,0,-1.3333333,377.59373,163.67053)"
         clip-path="url(#clipPath61)" />
      <path
         id="path62"
         d="M 0,0 37.611,17.26 54.102,-18.671 C 47.121,-28.115 35.914,-34.269 23.339,-34.269 h -0.002 c -2.742,0 -5.419,0.295 -8.001,0.852 z"
         style="fill:#d66c42;fill-opacity:1;fill-rule:evenodd;stroke:none"
         transform="matrix(1.3333333,0,0,-1.3333333,377.59373,163.67053)"
         clip-path="url(#clipPath63)" />
      <path
         id="path64"
         d="m 0,0 v 0 c 21.031,0 38.238,-17.208 38.238,-38.239 v -10.477 c 0,-21.032 -17.207,-38.24 -38.238,-38.24 -21.032,0 -38.24,17.208 -38.24,38.24 v 10.477 C -38.24,-17.208 -21.032,0 0,0"
         style="fill:#f28f62;fill-opacity:1;fill-rule:evenodd;stroke:none"
         transform="matrix(1.3333333,0,0,-1.3333333,395.79173,90.9772)"
         clip-path="url(#clipPath65)" />
      <path
         id="path66"
         d="m 0,0 c 2.458,0 5.103,-2.989 5.91,-6.679 0.805,-3.689 -0.537,-6.678 -2.996,-6.678 -2.459,0 -5.105,2.989 -5.91,6.678 C -3.801,-2.989 -2.459,0 0,0"
         style="fill:#d66c42;fill-opacity:1;fill-rule:evenodd;stroke:none"
         transform="matrix(1.3333333,0,0,-1.3333333,414.22787,431.7188)"
         clip-path="url(#clipPath67)" />
      <path
         id="path68"
         d="M 0,0 C 13.2,0 23.964,10.766 23.964,23.964 23.964,37.164 13.2,47.93 0,47.93 -13.2,47.93 -23.966,37.164 -23.966,23.964 -23.966,10.766 -13.2,0 0,0"
         style="fill:#463d3b;fill-opacity:1;fill-rule:evenodd;stroke:none"
         transform="matrix(1.3333333,0,0,-1.3333333,378.2604,127.72267)"
         clip-path="url(#clipPath69)" />
      <path
         id="path70"
         d="m 0,0 c 11.54,0 20.953,9.412 20.953,20.953 0,11.54 -9.413,20.953 -20.953,20.953 -11.54,0 -20.953,-9.413 -20.953,-20.953 C -20.953,9.412 -11.54,0 0,0"
         style="fill:#463d3b;fill-opacity:1;fill-rule:evenodd;stroke:none"
         transform="matrix(1.3333333,0,0,-1.3333333,418.59507,132.2624)"
         clip-path="url(#clipPath71)" />
      <path
         id="path72"
         d="M 0,0 C 6.418,0 11.653,11.177 11.653,24.882 11.653,38.586 6.418,49.763 0,49.763 -6.419,49.763 -11.656,38.586 -11.656,24.882 -11.656,11.177 -6.419,0 0,0"
         style="fill:#463d3b;fill-opacity:1;fill-rule:evenodd;stroke:none"
         transform="matrix(1.3333333,0,0,-1.3333333,444.26307,174.51893)"
         clip-path="url(#clipPath73)" />
      <path
         id="path74"
         d="M 0,0 C 4.302,0 7.81,5.582 7.81,12.426 7.81,19.27 4.302,24.853 0,24.853 -4.302,24.853 -7.811,19.27 -7.811,12.426 -7.811,5.582 -4.302,0 0,0"
         style="fill:#f28f62;fill-opacity:1;fill-rule:evenodd;stroke:none"
         transform="matrix(1.3333333,0,0,-1.3333333,432.85027,174.4792)"
         clip-path="url(#clipPath75)" />
      <path
         id="path76"
         d="M 0,0 C 18.511,0 33.518,-15.007 33.518,-33.518 H -33.519 C -33.519,-15.007 -18.513,0 0,0"
         style="fill:#cc2d23;fill-opacity:1;fill-rule:evenodd;stroke:none"
         transform="matrix(1.3333333,0,0,-1.3333333,502.19147,678.26307)"
         clip-path="url(#clipPath77)" />
      <path
         id="path78"
         d="M 0,0 C 23.195,0 41.998,-15.007 41.998,-33.518 H -41.999 C -41.999,-15.007 -23.195,0 0,0"
         style="fill:#cc2d23;fill-opacity:1;fill-rule:evenodd;stroke:none"
         transform="matrix(1.3333333,0,0,-1.3333333,251.09373,678.26307)"
         clip-path="url(#clipPath79)" />
      <path
         id="path80"
         d="M 0,0 C 15.155,-6.951 23.652,-4.488 28.679,2.881 19.118,1.921 9.559,0.96 0,0"
         style="fill:#ffffff;fill-opacity:1;fill-rule:evenodd;stroke:none"
         transform="matrix(1.3333333,0,0,-1.3333333,370.22787,194.42387)"
         clip-path="url(#clipPath81)" />
      <path
         id="path82"
         d="m 0,0 c 2.019,0 3.666,2.382 3.666,5.304 0,2.921 -1.647,5.303 -3.666,5.303 -2.02,0 -3.668,-2.382 -3.668,-5.303 C -3.668,2.382 -2.02,0 0,0"
         style="fill:#463d3b;fill-opacity:1;fill-rule:evenodd;stroke:none"
         transform="matrix(1.3333333,0,0,-1.3333333,358.0052,163.51693)"
         clip-path="url(#clipPath83)" />
      <path
         id="path84"
         d="m 0,0 c 2.476,0 4.493,2.382 4.493,5.304 0,2.921 -2.017,5.303 -4.493,5.303 -2.473,0 -4.492,-2.382 -4.492,-5.303 C -4.492,2.382 -2.473,0 0,0"
         style="fill:#463d3b;fill-opacity:1;fill-rule:evenodd;stroke:none"
         transform="matrix(1.3333333,0,0,-1.3333333,390.2532,163.51693)"
         clip-path="url(#clipPath85)" />
    </g>
  </g>
</svg>
